# xmcd CD database file
#
# Track frame offsets:
#	150
#	12712
#	26225
#	38250
#	50730
#	63722
#	74645
#	88862
#	102620
#	116500
#
# Disc length: 1699 seconds
#
# Revision: 0
# Processed by: cddbd v1.5.1PL2 Copyright (c) Steve Scherf et al.
# Submitted via: CDex 1.60beta1
#
DISCID=9506a10a
DTITLE=Joe Williams - Joe Williams Sings
DYEAR=1950
DGENRE=Jazz
TTITLE0=It's Raining Again
TTITLE1=Detour Ahead
TTITLE2=Every Day
TTITLE3=They Didn't Believe Me
TTITLE4=Blow Mr.Low
TTITLE5=Time For Moving
TTITLE6=When The Sun Goes Down
TTITLE7=Kansas City Blues
TTITLE8=Always On The Blue Side
TTITLE9=Safe Sane And Single
EXTD=YEAR: 1950
EXTT0=
EXTT1=
EXTT2=
EXTT3=
EXTT4=
EXTT5=
EXTT6=
EXTT7=
EXTT8=
EXTT9=
PLAYORDER=
